<svg xmlns="http://www.w3.org/2000/svg" xmlns:xlink="http://www.w3.org/1999/xlink" width="1920" zoomAndPan="magnify" viewBox="0 0 1440 809.999993" height="1080" preserveAspectRatio="xMidYMid meet" version="1.0"><defs><filter x="0%" y="0%" width="100%" height="100%" id="86b3537f4f"><feColorMatrix values="0 0 0 0 1 0 0 0 0 1 0 0 0 0 1 0 0 0 1 0" color-interpolation-filters="sRGB"/></filter><g/><clipPath id="ff56bda2ed"><path d="M 0 0 L 1440 0 L 1440 810 L 0 810 Z M 0 0 " clip-rule="nonzero"/></clipPath><linearGradient x1="-93.7104" gradientTransform="matrix(1.372565, 0, 0, 1.372867, 128.623593, 268.761482)" y1="83.5" x2="955.420414" gradientUnits="userSpaceOnUse" y2="83.5" id="9a9ffdec3e"><stop stop-opacity="1" stop-color="rgb(27.059937%, 62.348938%, 16.859436%)" offset="0"/><stop stop-opacity="1" stop-color="rgb(27.059937%, 62.348938%, 16.859436%)" offset="0.0625"/><stop stop-opacity="1" stop-color="rgb(27.059937%, 62.348938%, 16.859436%)" offset="0.09375"/><stop stop-opacity="1" stop-color="rgb(27.059937%, 62.348938%, 16.859436%)" offset="0.109375"/><stop stop-opacity="1" stop-color="rgb(27.059937%, 62.348938%, 16.859436%)" offset="0.117188"/><stop stop-opacity="1" stop-color="rgb(27.308655%, 62.632751%, 17.098999%)" offset="0.121094"/><stop stop-opacity="1" stop-color="rgb(27.558899%, 62.916565%, 17.340088%)" offset="0.125"/><stop stop-opacity="1" stop-color="rgb(27.859497%, 63.258362%, 17.630005%)" offset="0.128906"/><stop stop-opacity="1" stop-color="rgb(28.160095%, 63.600159%, 17.919922%)" offset="0.132812"/><stop stop-opacity="1" stop-color="rgb(28.460693%, 63.941956%, 18.209839%)" offset="0.136719"/><stop stop-opacity="1" stop-color="rgb(28.762817%, 64.283752%, 18.499756%)" offset="0.140625"/><stop stop-opacity="1" stop-color="rgb(29.063416%, 64.625549%, 18.789673%)" offset="0.144531"/><stop stop-opacity="1" stop-color="rgb(29.364014%, 64.967346%, 19.07959%)" offset="0.148437"/><stop stop-opacity="1" stop-color="rgb(29.664612%, 65.309143%, 19.367981%)" offset="0.152344"/><stop stop-opacity="1" stop-color="rgb(29.96521%, 65.65094%, 19.657898%)" offset="0.15625"/><stop stop-opacity="1" stop-color="rgb(30.265808%, 65.992737%, 19.947815%)" offset="0.160156"/><stop stop-opacity="1" stop-color="rgb(30.567932%, 66.334534%, 20.237732%)" offset="0.164062"/><stop stop-opacity="1" stop-color="rgb(30.86853%, 66.676331%, 20.527649%)" offset="0.167969"/><stop stop-opacity="1" stop-color="rgb(31.169128%, 67.018127%, 20.817566%)" offset="0.171875"/><stop stop-opacity="1" stop-color="rgb(31.469727%, 67.359924%, 21.107483%)" offset="0.175781"/><stop stop-opacity="1" stop-color="rgb(31.770325%, 67.701721%, 21.3974%)" offset="0.179687"/><stop stop-opacity="1" stop-color="rgb(32.070923%, 68.043518%, 21.687317%)" offset="0.183594"/><stop stop-opacity="1" stop-color="rgb(32.371521%, 68.385315%, 21.977234%)" offset="0.1875"/><stop stop-opacity="1" stop-color="rgb(32.672119%, 68.727112%, 22.265625%)" offset="0.191406"/><stop stop-opacity="1" stop-color="rgb(32.974243%, 69.068909%, 22.555542%)" offset="0.195312"/><stop stop-opacity="1" stop-color="rgb(33.274841%, 69.410706%, 22.845459%)" offset="0.199219"/><stop stop-opacity="1" stop-color="rgb(33.575439%, 69.752502%, 23.135376%)" offset="0.203125"/><stop stop-opacity="1" stop-color="rgb(33.876038%, 70.094299%, 23.425293%)" offset="0.207031"/><stop stop-opacity="1" stop-color="rgb(34.176636%, 70.436096%, 23.71521%)" offset="0.210937"/><stop stop-opacity="1" stop-color="rgb(34.477234%, 70.777893%, 24.005127%)" offset="0.214844"/><stop stop-opacity="1" stop-color="rgb(34.779358%, 71.11969%, 24.295044%)" offset="0.21875"/><stop stop-opacity="1" stop-color="rgb(35.079956%, 71.461487%, 24.584961%)" offset="0.222656"/><stop stop-opacity="1" stop-color="rgb(35.380554%, 71.803284%, 24.874878%)" offset="0.226562"/><stop stop-opacity="1" stop-color="rgb(35.681152%, 72.143555%, 25.163269%)" offset="0.230469"/><stop stop-opacity="1" stop-color="rgb(35.98175%, 72.485352%, 25.453186%)" offset="0.234375"/><stop stop-opacity="1" stop-color="rgb(36.282349%, 72.827148%, 25.743103%)" offset="0.238281"/><stop stop-opacity="1" stop-color="rgb(36.584473%, 73.168945%, 26.03302%)" offset="0.242188"/><stop stop-opacity="1" stop-color="rgb(36.885071%, 73.510742%, 26.322937%)" offset="0.246094"/><stop stop-opacity="1" stop-color="rgb(37.185669%, 73.852539%, 26.612854%)" offset="0.25"/><stop stop-opacity="1" stop-color="rgb(37.486267%, 74.194336%, 26.902771%)" offset="0.253906"/><stop stop-opacity="1" stop-color="rgb(37.786865%, 74.536133%, 27.192688%)" offset="0.257812"/><stop stop-opacity="1" stop-color="rgb(38.087463%, 74.87793%, 27.481079%)" offset="0.261719"/><stop stop-opacity="1" stop-color="rgb(38.389587%, 75.219727%, 27.770996%)" offset="0.265625"/><stop stop-opacity="1" stop-color="rgb(38.690186%, 75.561523%, 28.060913%)" offset="0.269531"/><stop stop-opacity="1" stop-color="rgb(38.990784%, 75.90332%, 28.35083%)" offset="0.273438"/><stop stop-opacity="1" stop-color="rgb(39.291382%, 76.245117%, 28.640747%)" offset="0.277344"/><stop stop-opacity="1" stop-color="rgb(39.59198%, 76.586914%, 28.930664%)" offset="0.28125"/><stop stop-opacity="1" stop-color="rgb(39.892578%, 76.928711%, 29.220581%)" offset="0.285156"/><stop stop-opacity="1" stop-color="rgb(40.194702%, 77.270508%, 29.510498%)" offset="0.289062"/><stop stop-opacity="1" stop-color="rgb(40.4953%, 77.612305%, 29.800415%)" offset="0.292969"/><stop stop-opacity="1" stop-color="rgb(40.795898%, 77.954102%, 30.090332%)" offset="0.296875"/><stop stop-opacity="1" stop-color="rgb(41.096497%, 78.295898%, 30.378723%)" offset="0.300781"/><stop stop-opacity="1" stop-color="rgb(41.397095%, 78.637695%, 30.66864%)" offset="0.304688"/><stop stop-opacity="1" stop-color="rgb(41.697693%, 78.979492%, 30.958557%)" offset="0.308594"/><stop stop-opacity="1" stop-color="rgb(41.999817%, 79.321289%, 31.248474%)" offset="0.3125"/><stop stop-opacity="1" stop-color="rgb(42.300415%, 79.663086%, 31.538391%)" offset="0.316406"/><stop stop-opacity="1" stop-color="rgb(42.601013%, 80.004883%, 31.828308%)" offset="0.320312"/><stop stop-opacity="1" stop-color="rgb(42.901611%, 80.34668%, 32.118225%)" offset="0.324219"/><stop stop-opacity="1" stop-color="rgb(43.202209%, 80.688477%, 32.408142%)" offset="0.328125"/><stop stop-opacity="1" stop-color="rgb(43.502808%, 81.030273%, 32.698059%)" offset="0.332031"/><stop stop-opacity="1" stop-color="rgb(43.804932%, 81.37207%, 32.987976%)" offset="0.335937"/><stop stop-opacity="1" stop-color="rgb(44.10553%, 81.713867%, 33.276367%)" offset="0.339844"/><stop stop-opacity="1" stop-color="rgb(44.406128%, 82.055664%, 33.566284%)" offset="0.34375"/><stop stop-opacity="1" stop-color="rgb(44.706726%, 82.397461%, 33.856201%)" offset="0.347656"/><stop stop-opacity="1" stop-color="rgb(45.007324%, 82.739258%, 34.146118%)" offset="0.351562"/><stop stop-opacity="1" stop-color="rgb(45.307922%, 83.081055%, 34.436035%)" offset="0.355469"/><stop stop-opacity="1" stop-color="rgb(45.608521%, 83.422852%, 34.725952%)" offset="0.359375"/><stop stop-opacity="1" stop-color="rgb(45.909119%, 83.764648%, 35.015869%)" offset="0.363281"/><stop stop-opacity="1" stop-color="rgb(46.211243%, 84.106445%, 35.305786%)" offset="0.367187"/><stop stop-opacity="1" stop-color="rgb(46.511841%, 84.448242%, 35.595703%)" offset="0.371094"/><stop stop-opacity="1" stop-color="rgb(46.812439%, 84.790039%, 35.88562%)" offset="0.375"/><stop stop-opacity="1" stop-color="rgb(47.113037%, 85.131836%, 36.174011%)" offset="0.378906"/><stop stop-opacity="1" stop-color="rgb(47.413635%, 85.473633%, 36.463928%)" offset="0.382812"/><stop stop-opacity="1" stop-color="rgb(47.714233%, 85.81543%, 36.753845%)" offset="0.386719"/><stop stop-opacity="1" stop-color="rgb(48.016357%, 86.157227%, 37.043762%)" offset="0.390625"/><stop stop-opacity="1" stop-color="rgb(48.316956%, 86.497498%, 37.333679%)" offset="0.394531"/><stop stop-opacity="1" stop-color="rgb(48.617554%, 86.839294%, 37.623596%)" offset="0.398437"/><stop stop-opacity="1" stop-color="rgb(48.918152%, 87.181091%, 37.913513%)" offset="0.402344"/><stop stop-opacity="1" stop-color="rgb(49.21875%, 87.522888%, 38.20343%)" offset="0.40625"/><stop stop-opacity="1" stop-color="rgb(49.519348%, 87.864685%, 38.491821%)" offset="0.410156"/><stop stop-opacity="1" stop-color="rgb(49.821472%, 88.206482%, 38.781738%)" offset="0.414062"/><stop stop-opacity="1" stop-color="rgb(50.12207%, 88.548279%, 39.071655%)" offset="0.417969"/><stop stop-opacity="1" stop-color="rgb(50.422668%, 88.890076%, 39.361572%)" offset="0.421875"/><stop stop-opacity="1" stop-color="rgb(50.723267%, 89.231873%, 39.651489%)" offset="0.425781"/><stop stop-opacity="1" stop-color="rgb(51.023865%, 89.573669%, 39.941406%)" offset="0.429688"/><stop stop-opacity="1" stop-color="rgb(51.324463%, 89.915466%, 40.231323%)" offset="0.433594"/><stop stop-opacity="1" stop-color="rgb(51.626587%, 90.257263%, 40.52124%)" offset="0.4375"/><stop stop-opacity="1" stop-color="rgb(51.927185%, 90.59906%, 40.811157%)" offset="0.441406"/><stop stop-opacity="1" stop-color="rgb(52.227783%, 90.940857%, 41.101074%)" offset="0.445312"/><stop stop-opacity="1" stop-color="rgb(52.528381%, 91.282654%, 41.389465%)" offset="0.449219"/><stop stop-opacity="1" stop-color="rgb(52.828979%, 91.624451%, 41.679382%)" offset="0.453125"/><stop stop-opacity="1" stop-color="rgb(53.129578%, 91.966248%, 41.969299%)" offset="0.457031"/><stop stop-opacity="1" stop-color="rgb(53.431702%, 92.308044%, 42.259216%)" offset="0.460938"/><stop stop-opacity="1" stop-color="rgb(53.7323%, 92.649841%, 42.549133%)" offset="0.464844"/><stop stop-opacity="1" stop-color="rgb(54.032898%, 92.991638%, 42.83905%)" offset="0.46875"/><stop stop-opacity="1" stop-color="rgb(54.333496%, 93.333435%, 43.128967%)" offset="0.472656"/><stop stop-opacity="1" stop-color="rgb(54.634094%, 93.675232%, 43.418884%)" offset="0.476562"/><stop stop-opacity="1" stop-color="rgb(54.934692%, 94.017029%, 43.708801%)" offset="0.480469"/><stop stop-opacity="1" stop-color="rgb(55.236816%, 94.358826%, 43.998718%)" offset="0.484375"/><stop stop-opacity="1" stop-color="rgb(55.537415%, 94.700623%, 44.287109%)" offset="0.488281"/><stop stop-opacity="1" stop-color="rgb(55.838013%, 95.042419%, 44.577026%)" offset="0.492188"/><stop stop-opacity="1" stop-color="rgb(56.138611%, 95.384216%, 44.866943%)" offset="0.496094"/><stop stop-opacity="1" stop-color="rgb(56.439209%, 95.726013%, 45.15686%)" offset="0.5"/><stop stop-opacity="1" stop-color="rgb(56.739807%, 96.06781%, 45.446777%)" offset="0.503906"/><stop stop-opacity="1" stop-color="rgb(57.040405%, 96.409607%, 45.736694%)" offset="0.507812"/><stop stop-opacity="1" stop-color="rgb(57.341003%, 96.751404%, 46.026611%)" offset="0.511719"/><stop stop-opacity="1" stop-color="rgb(57.643127%, 97.093201%, 46.316528%)" offset="0.515625"/><stop stop-opacity="1" stop-color="rgb(57.943726%, 97.434998%, 46.606445%)" offset="0.519531"/><stop stop-opacity="1" stop-color="rgb(58.244324%, 97.776794%, 46.896362%)" offset="0.523438"/><stop stop-opacity="1" stop-color="rgb(58.517456%, 98.088074%, 47.158813%)" offset="0.527344"/><stop stop-opacity="1" stop-color="rgb(58.792114%, 98.399353%, 47.422791%)" offset="0.53125"/><stop stop-opacity="1" stop-color="rgb(58.491516%, 98.057556%, 47.132874%)" offset="0.535156"/><stop stop-opacity="1" stop-color="rgb(58.190918%, 97.715759%, 46.844482%)" offset="0.539062"/><stop stop-opacity="1" stop-color="rgb(57.888794%, 97.373962%, 46.554565%)" offset="0.542969"/><stop stop-opacity="1" stop-color="rgb(57.588196%, 97.032166%, 46.264648%)" offset="0.546875"/><stop stop-opacity="1" stop-color="rgb(57.287598%, 96.690369%, 45.974731%)" offset="0.550781"/><stop stop-opacity="1" stop-color="rgb(56.987%, 96.348572%, 45.684814%)" offset="0.554688"/><stop stop-opacity="1" stop-color="rgb(56.686401%, 96.006775%, 45.394897%)" offset="0.558594"/><stop stop-opacity="1" stop-color="rgb(56.385803%, 95.664978%, 45.10498%)" offset="0.5625"/><stop stop-opacity="1" stop-color="rgb(56.085205%, 95.323181%, 44.815063%)" offset="0.566406"/><stop stop-opacity="1" stop-color="rgb(55.784607%, 94.981384%, 44.525146%)" offset="0.570312"/><stop stop-opacity="1" stop-color="rgb(55.482483%, 94.639587%, 44.235229%)" offset="0.574219"/><stop stop-opacity="1" stop-color="rgb(55.181885%, 94.297791%, 43.946838%)" offset="0.578125"/><stop stop-opacity="1" stop-color="rgb(54.881287%, 93.955994%, 43.656921%)" offset="0.582031"/><stop stop-opacity="1" stop-color="rgb(54.580688%, 93.614197%, 43.367004%)" offset="0.585938"/><stop stop-opacity="1" stop-color="rgb(54.28009%, 93.2724%, 43.077087%)" offset="0.589844"/><stop stop-opacity="1" stop-color="rgb(53.979492%, 92.930603%, 42.78717%)" offset="0.59375"/><stop stop-opacity="1" stop-color="rgb(53.677368%, 92.588806%, 42.497253%)" offset="0.597656"/><stop stop-opacity="1" stop-color="rgb(53.37677%, 92.247009%, 42.207336%)" offset="0.601562"/><stop stop-opacity="1" stop-color="rgb(53.076172%, 91.905212%, 41.917419%)" offset="0.605469"/><stop stop-opacity="1" stop-color="rgb(52.775574%, 91.563416%, 41.627502%)" offset="0.609375"/><stop stop-opacity="1" stop-color="rgb(52.474976%, 91.221619%, 41.337585%)" offset="0.613281"/><stop stop-opacity="1" stop-color="rgb(52.174377%, 90.879822%, 41.049194%)" offset="0.617188"/><stop stop-opacity="1" stop-color="rgb(51.872253%, 90.538025%, 40.759277%)" offset="0.621094"/><stop stop-opacity="1" stop-color="rgb(51.571655%, 90.196228%, 40.46936%)" offset="0.625"/><stop stop-opacity="1" stop-color="rgb(51.271057%, 89.854431%, 40.179443%)" offset="0.628906"/><stop stop-opacity="1" stop-color="rgb(50.970459%, 89.512634%, 39.889526%)" offset="0.632812"/><stop stop-opacity="1" stop-color="rgb(50.669861%, 89.170837%, 39.599609%)" offset="0.636719"/><stop stop-opacity="1" stop-color="rgb(50.369263%, 88.829041%, 39.309692%)" offset="0.640625"/><stop stop-opacity="1" stop-color="rgb(50.067139%, 88.487244%, 39.019775%)" offset="0.644531"/><stop stop-opacity="1" stop-color="rgb(49.766541%, 88.145447%, 38.729858%)" offset="0.648438"/><stop stop-opacity="1" stop-color="rgb(49.465942%, 87.80365%, 38.439941%)" offset="0.652344"/><stop stop-opacity="1" stop-color="rgb(49.165344%, 87.461853%, 38.15155%)" offset="0.65625"/><stop stop-opacity="1" stop-color="rgb(48.864746%, 87.120056%, 37.861633%)" offset="0.660156"/><stop stop-opacity="1" stop-color="rgb(48.564148%, 86.778259%, 37.571716%)" offset="0.664063"/><stop stop-opacity="1" stop-color="rgb(48.262024%, 86.436462%, 37.281799%)" offset="0.667969"/><stop stop-opacity="1" stop-color="rgb(47.961426%, 86.094666%, 36.991882%)" offset="0.671875"/><stop stop-opacity="1" stop-color="rgb(47.660828%, 85.752869%, 36.701965%)" offset="0.675781"/><stop stop-opacity="1" stop-color="rgb(47.360229%, 85.411072%, 36.412048%)" offset="0.679688"/><stop stop-opacity="1" stop-color="rgb(47.059631%, 85.069275%, 36.122131%)" offset="0.683594"/><stop stop-opacity="1" stop-color="rgb(46.759033%, 84.729004%, 35.83374%)" offset="0.6875"/><stop stop-opacity="1" stop-color="rgb(46.456909%, 84.387207%, 35.543823%)" offset="0.691406"/><stop stop-opacity="1" stop-color="rgb(46.156311%, 84.04541%, 35.253906%)" offset="0.695313"/><stop stop-opacity="1" stop-color="rgb(45.855713%, 83.703613%, 34.963989%)" offset="0.699219"/><stop stop-opacity="1" stop-color="rgb(45.555115%, 83.361816%, 34.674072%)" offset="0.703125"/><stop stop-opacity="1" stop-color="rgb(45.254517%, 83.02002%, 34.384155%)" offset="0.707031"/><stop stop-opacity="1" stop-color="rgb(44.953918%, 82.678223%, 34.094238%)" offset="0.710938"/><stop stop-opacity="1" stop-color="rgb(44.65332%, 82.336426%, 33.804321%)" offset="0.714844"/><stop stop-opacity="1" stop-color="rgb(44.352722%, 81.994629%, 33.514404%)" offset="0.71875"/><stop stop-opacity="1" stop-color="rgb(44.050598%, 81.652832%, 33.224487%)" offset="0.722656"/><stop stop-opacity="1" stop-color="rgb(43.75%, 81.311035%, 32.936096%)" offset="0.726563"/><stop stop-opacity="1" stop-color="rgb(43.449402%, 80.969238%, 32.646179%)" offset="0.730469"/><stop stop-opacity="1" stop-color="rgb(43.148804%, 80.627441%, 32.356262%)" offset="0.734375"/><stop stop-opacity="1" stop-color="rgb(42.848206%, 80.285645%, 32.066345%)" offset="0.738281"/><stop stop-opacity="1" stop-color="rgb(42.547607%, 79.943848%, 31.776428%)" offset="0.742188"/><stop stop-opacity="1" stop-color="rgb(42.245483%, 79.602051%, 31.486511%)" offset="0.746094"/><stop stop-opacity="1" stop-color="rgb(41.944885%, 79.260254%, 31.196594%)" offset="0.75"/><stop stop-opacity="1" stop-color="rgb(41.644287%, 78.918457%, 30.906677%)" offset="0.753906"/><stop stop-opacity="1" stop-color="rgb(41.343689%, 78.57666%, 30.61676%)" offset="0.757812"/><stop stop-opacity="1" stop-color="rgb(41.043091%, 78.234863%, 30.326843%)" offset="0.761719"/><stop stop-opacity="1" stop-color="rgb(40.742493%, 77.893066%, 30.038452%)" offset="0.765625"/><stop stop-opacity="1" stop-color="rgb(40.440369%, 77.55127%, 29.748535%)" offset="0.769531"/><stop stop-opacity="1" stop-color="rgb(40.139771%, 77.209473%, 29.458618%)" offset="0.773437"/><stop stop-opacity="1" stop-color="rgb(39.839172%, 76.867676%, 29.168701%)" offset="0.777344"/><stop stop-opacity="1" stop-color="rgb(39.538574%, 76.525879%, 28.878784%)" offset="0.78125"/><stop stop-opacity="1" stop-color="rgb(39.237976%, 76.184082%, 28.588867%)" offset="0.785156"/><stop stop-opacity="1" stop-color="rgb(38.937378%, 75.842285%, 28.29895%)" offset="0.789062"/><stop stop-opacity="1" stop-color="rgb(38.635254%, 75.500488%, 28.009033%)" offset="0.792969"/><stop stop-opacity="1" stop-color="rgb(38.334656%, 75.158691%, 27.719116%)" offset="0.796875"/><stop stop-opacity="1" stop-color="rgb(38.034058%, 74.816895%, 27.429199%)" offset="0.800781"/><stop stop-opacity="1" stop-color="rgb(37.733459%, 74.475098%, 27.140808%)" offset="0.804687"/><stop stop-opacity="1" stop-color="rgb(37.432861%, 74.133301%, 26.850891%)" offset="0.808594"/><stop stop-opacity="1" stop-color="rgb(37.132263%, 73.791504%, 26.560974%)" offset="0.8125"/><stop stop-opacity="1" stop-color="rgb(36.830139%, 73.449707%, 26.271057%)" offset="0.816406"/><stop stop-opacity="1" stop-color="rgb(36.529541%, 73.10791%, 25.98114%)" offset="0.820312"/><stop stop-opacity="1" stop-color="rgb(36.228943%, 72.766113%, 25.691223%)" offset="0.824219"/><stop stop-opacity="1" stop-color="rgb(35.928345%, 72.424316%, 25.401306%)" offset="0.828125"/><stop stop-opacity="1" stop-color="rgb(35.627747%, 72.08252%, 25.111389%)" offset="0.832031"/><stop stop-opacity="1" stop-color="rgb(35.327148%, 71.740723%, 24.822998%)" offset="0.835937"/><stop stop-opacity="1" stop-color="rgb(35.025024%, 71.398926%, 24.533081%)" offset="0.839844"/><stop stop-opacity="1" stop-color="rgb(34.724426%, 71.057129%, 24.243164%)" offset="0.84375"/><stop stop-opacity="1" stop-color="rgb(34.423828%, 70.715332%, 23.953247%)" offset="0.847656"/><stop stop-opacity="1" stop-color="rgb(34.12323%, 70.375061%, 23.66333%)" offset="0.851562"/><stop stop-opacity="1" stop-color="rgb(33.822632%, 70.033264%, 23.373413%)" offset="0.855469"/><stop stop-opacity="1" stop-color="rgb(33.522034%, 69.691467%, 23.083496%)" offset="0.859375"/><stop stop-opacity="1" stop-color="rgb(33.221436%, 69.34967%, 22.793579%)" offset="0.863281"/><stop stop-opacity="1" stop-color="rgb(32.920837%, 69.007874%, 22.503662%)" offset="0.867187"/><stop stop-opacity="1" stop-color="rgb(32.618713%, 68.666077%, 22.213745%)" offset="0.871094"/><stop stop-opacity="1" stop-color="rgb(32.318115%, 68.32428%, 21.925354%)" offset="0.875"/><stop stop-opacity="1" stop-color="rgb(32.017517%, 67.982483%, 21.635437%)" offset="0.878906"/><stop stop-opacity="1" stop-color="rgb(31.716919%, 67.640686%, 21.34552%)" offset="0.882812"/><stop stop-opacity="1" stop-color="rgb(31.416321%, 67.298889%, 21.055603%)" offset="0.886719"/><stop stop-opacity="1" stop-color="rgb(31.115723%, 66.957092%, 20.765686%)" offset="0.890625"/><stop stop-opacity="1" stop-color="rgb(30.813599%, 66.615295%, 20.475769%)" offset="0.894531"/><stop stop-opacity="1" stop-color="rgb(30.513%, 66.273499%, 20.185852%)" offset="0.898437"/><stop stop-opacity="1" stop-color="rgb(30.212402%, 65.931702%, 19.895935%)" offset="0.902344"/><stop stop-opacity="1" stop-color="rgb(29.911804%, 65.589905%, 19.606018%)" offset="0.90625"/><stop stop-opacity="1" stop-color="rgb(29.611206%, 65.248108%, 19.316101%)" offset="0.910156"/><stop stop-opacity="1" stop-color="rgb(29.310608%, 64.906311%, 19.02771%)" offset="0.914062"/><stop stop-opacity="1" stop-color="rgb(29.008484%, 64.564514%, 18.737793%)" offset="0.917969"/><stop stop-opacity="1" stop-color="rgb(28.707886%, 64.222717%, 18.447876%)" offset="0.921875"/><stop stop-opacity="1" stop-color="rgb(28.407288%, 63.88092%, 18.157959%)" offset="0.925781"/><stop stop-opacity="1" stop-color="rgb(28.106689%, 63.539124%, 17.868042%)" offset="0.929687"/><stop stop-opacity="1" stop-color="rgb(27.806091%, 63.197327%, 17.578125%)" offset="0.933594"/><stop stop-opacity="1" stop-color="rgb(27.505493%, 62.85553%, 17.288208%)" offset="0.9375"/><stop stop-opacity="1" stop-color="rgb(27.282715%, 62.602234%, 17.073059%)" offset="0.941406"/><stop stop-opacity="1" stop-color="rgb(27.059937%, 62.348938%, 16.859436%)" offset="0.945312"/><stop stop-opacity="1" stop-color="rgb(27.059937%, 62.348938%, 16.859436%)" offset="0.953125"/><stop stop-opacity="1" stop-color="rgb(27.059937%, 62.348938%, 16.859436%)" offset="0.96875"/><stop stop-opacity="1" stop-color="rgb(27.059937%, 62.348938%, 16.859436%)" offset="1"/></linearGradient><clipPath id="58e5422637"><rect x="0" width="1440" y="0" height="810"/></clipPath><clipPath id="74da0625fa"><rect x="0" width="1440" y="0" height="810"/></clipPath><clipPath id="75a2fa68d6"><rect x="0" width="1440" y="0" height="810"/></clipPath><mask id="7f80759435"><g filter="url(#86b3537f4f)"><g transform="matrix(1, 0, 0, 1, 0, 0.000000000000039746)"><g clip-path="url(#75a2fa68d6)"><g transform="matrix(1, 0, 0, 1, 0, 0.000000000000039746)"><g clip-path="url(#74da0625fa)"><g fill="#000000" fill-opacity="1"><g transform="translate(170.233511, 451.339697)"><g><path d="M 39.203125 0 C 31.671875 0 25.5625 -2.304688 20.875 -6.921875 C 16.1875 -11.535156 13.84375 -17.300781 13.84375 -24.21875 L 13.84375 -137.21875 C 13.84375 -144.132812 16.1875 -149.898438 20.875 -154.515625 C 25.5625 -159.128906 31.671875 -161.4375 39.203125 -161.4375 C 46.734375 -161.4375 53.226562 -159.128906 58.6875 -154.515625 C 64.144531 -149.898438 69.179688 -144.132812 73.796875 -137.21875 L 106.09375 -88.796875 L 108.390625 -88.796875 L 108.390625 -137.21875 C 108.390625 -144.132812 110.734375 -149.898438 115.421875 -154.515625 C 120.117188 -159.128906 126.234375 -161.4375 133.765625 -161.4375 C 141.296875 -161.4375 147.40625 -159.128906 152.09375 -154.515625 C 156.78125 -149.898438 159.125 -144.132812 159.125 -137.21875 L 159.125 -24.21875 C 159.125 -17.300781 156.78125 -11.535156 152.09375 -6.921875 C 147.40625 -2.304688 141.296875 0 133.765625 0 C 126.234375 0 119.738281 -2.304688 114.28125 -6.921875 C 108.820312 -11.535156 103.785156 -17.300781 99.171875 -24.21875 L 66.875 -72.640625 L 64.578125 -72.640625 L 64.578125 -24.21875 C 64.578125 -17.300781 62.226562 -11.535156 57.53125 -6.921875 C 52.84375 -2.304688 46.734375 0 39.203125 0 Z M 39.203125 0 "/></g></g></g><g fill="#000000" fill-opacity="1"><g transform="translate(357.723651, 451.339697)"><g><path d="M 80.71875 4.609375 C 70.113281 4.609375 60.539062 3.035156 52 -0.109375 C 43.46875 -3.265625 36.203125 -7.722656 30.203125 -13.484375 C 24.210938 -19.253906 19.601562 -26.175781 16.375 -34.25 C 13.144531 -42.320312 11.53125 -51.273438 11.53125 -61.109375 L 11.53125 -137.21875 C 11.53125 -144.132812 13.875 -149.898438 18.5625 -154.515625 C 23.25 -159.128906 29.363281 -161.4375 36.90625 -161.4375 C 44.4375 -161.4375 50.546875 -159.128906 55.234375 -154.515625 C 59.921875 -149.898438 62.265625 -144.132812 62.265625 -137.21875 L 62.265625 -61.109375 C 62.265625 -55.890625 63.878906 -51.703125 67.109375 -48.546875 C 70.335938 -45.390625 74.875 -43.8125 80.71875 -43.8125 C 86.5625 -43.8125 91.097656 -45.390625 94.328125 -48.546875 C 97.554688 -51.703125 99.171875 -55.890625 99.171875 -61.109375 L 99.171875 -137.21875 C 99.171875 -144.132812 101.515625 -149.898438 106.203125 -154.515625 C 110.890625 -159.128906 117 -161.4375 124.53125 -161.4375 C 132.070312 -161.4375 138.1875 -159.128906 142.875 -154.515625 C 147.5625 -149.898438 149.90625 -144.132812 149.90625 -137.21875 L 149.90625 -61.109375 C 149.90625 -51.273438 148.289062 -42.320312 145.0625 -34.25 C 141.832031 -26.175781 137.21875 -19.253906 131.21875 -13.484375 C 125.226562 -7.722656 117.960938 -3.265625 109.421875 -0.109375 C 100.890625 3.035156 91.320312 4.609375 80.71875 4.609375 Z M 80.71875 4.609375 "/></g></g></g><g fill="#000000" fill-opacity="1"><g transform="translate(533.683134, 451.339697)"><g><path d="M 39.203125 0 C 31.671875 0 25.5625 -2.304688 20.875 -6.921875 C 16.1875 -11.535156 13.84375 -17.300781 13.84375 -24.21875 L 13.84375 -137.21875 C 13.84375 -144.132812 16.1875 -149.898438 20.875 -154.515625 C 25.5625 -159.128906 31.671875 -161.4375 39.203125 -161.4375 C 42.890625 -161.4375 46.347656 -160.707031 49.578125 -159.25 C 52.804688 -157.789062 55.65625 -156.210938 58.125 -154.515625 C 60.882812 -152.515625 63.421875 -150.207031 65.734375 -147.59375 L 95.703125 -115.3125 L 125.6875 -147.59375 C 128 -150.207031 130.535156 -152.515625 133.296875 -154.515625 C 135.753906 -156.210938 138.5625 -157.789062 141.71875 -159.25 C 144.875 -160.707031 148.375 -161.4375 152.21875 -161.4375 C 159.75 -161.4375 165.859375 -159.128906 170.546875 -154.515625 C 175.234375 -149.898438 177.578125 -144.132812 177.578125 -137.21875 L 177.578125 -24.21875 C 177.578125 -17.300781 175.234375 -11.535156 170.546875 -6.921875 C 165.859375 -2.304688 159.75 0 152.21875 0 C 144.675781 0 138.5625 -2.304688 133.875 -6.921875 C 129.1875 -11.535156 126.84375 -17.300781 126.84375 -24.21875 L 126.84375 -83.03125 L 113 -68.03125 C 111.46875 -66.5 109.851562 -65.117188 108.15625 -63.890625 C 106.625 -62.804688 104.816406 -61.878906 102.734375 -61.109375 C 100.660156 -60.347656 98.316406 -59.96875 95.703125 -59.96875 C 93.085938 -59.96875 90.742188 -60.347656 88.671875 -61.109375 C 86.597656 -61.878906 84.789062 -62.804688 83.25 -63.890625 C 81.5625 -65.117188 79.945312 -66.5 78.40625 -68.03125 L 64.578125 -83.03125 L 64.578125 -24.21875 C 64.578125 -17.300781 62.226562 -11.535156 57.53125 -6.921875 C 52.84375 -2.304688 46.734375 0 39.203125 0 Z M 39.203125 0 "/></g></g></g><g fill="#000000" fill-opacity="1"><g transform="translate(739.622385, 451.339697)"><g><path d="M 39.203125 0 C 31.671875 0 25.5625 -2.304688 20.875 -6.921875 C 16.1875 -11.535156 13.84375 -17.300781 13.84375 -24.21875 L 13.84375 -137.21875 C 13.84375 -144.132812 16.1875 -149.898438 20.875 -154.515625 C 25.5625 -159.128906 31.671875 -161.4375 39.203125 -161.4375 L 110.703125 -161.4375 C 118.234375 -161.4375 124.34375 -159.128906 129.03125 -154.515625 C 133.71875 -149.898438 136.0625 -144.132812 136.0625 -137.21875 C 136.0625 -130.300781 133.71875 -124.535156 129.03125 -119.921875 C 124.34375 -115.304688 118.234375 -113 110.703125 -113 L 64.578125 -113 L 64.578125 -103.78125 L 95.703125 -103.78125 C 99.085938 -103.78125 102.28125 -103.164062 105.28125 -101.9375 C 108.28125 -100.707031 110.851562 -99.050781 113 -96.96875 C 115.15625 -94.894531 116.847656 -92.472656 118.078125 -89.703125 C 119.304688 -86.941406 119.921875 -83.945312 119.921875 -80.71875 C 119.921875 -77.488281 119.304688 -74.488281 118.078125 -71.71875 C 116.847656 -68.957031 115.15625 -66.535156 113 -64.453125 C 110.851562 -62.378906 108.28125 -60.726562 105.28125 -59.5 C 102.28125 -58.269531 99.085938 -57.65625 95.703125 -57.65625 L 64.578125 -57.65625 L 64.578125 -48.4375 L 110.703125 -48.4375 C 118.234375 -48.4375 124.34375 -46.128906 129.03125 -41.515625 C 133.71875 -36.898438 136.0625 -31.132812 136.0625 -24.21875 C 136.0625 -17.300781 133.71875 -11.535156 129.03125 -6.921875 C 124.34375 -2.304688 118.234375 0 110.703125 0 Z M 39.203125 0 "/></g></g></g><g fill="#000000" fill-opacity="1"><g transform="translate(892.520411, 451.339697)"><g><path d="M 39.203125 0 C 31.671875 0 25.5625 -2.304688 20.875 -6.921875 C 16.1875 -11.535156 13.84375 -17.300781 13.84375 -24.21875 L 13.84375 -137.21875 C 13.84375 -144.132812 16.1875 -149.898438 20.875 -154.515625 C 25.5625 -159.128906 31.671875 -161.4375 39.203125 -161.4375 L 83.03125 -161.4375 C 92.863281 -161.4375 101.625 -160.085938 109.3125 -157.390625 C 117 -154.703125 123.492188 -150.9375 128.796875 -146.09375 C 134.109375 -141.257812 138.1875 -135.535156 141.03125 -128.921875 C 143.875 -122.304688 145.296875 -115.078125 145.296875 -107.234375 C 145.296875 -100.472656 144.332031 -94.707031 142.40625 -89.9375 C 140.488281 -85.175781 138.375 -81.257812 136.0625 -78.1875 C 133.300781 -74.488281 130.226562 -71.488281 126.84375 -69.1875 L 141.828125 -41.515625 C 142.910156 -39.515625 143.835938 -37.4375 144.609375 -35.28125 C 145.367188 -33.4375 146.054688 -31.4375 146.671875 -29.28125 C 147.285156 -27.132812 147.59375 -25.0625 147.59375 -23.0625 C 147.59375 -16.601562 145.25 -11.144531 140.5625 -6.6875 C 135.875 -2.226562 129.765625 0 122.234375 0 C 118.390625 0 115.234375 -0.570312 112.765625 -1.71875 C 110.304688 -2.875 108.3125 -4.222656 106.78125 -5.765625 C 105.09375 -7.453125 103.707031 -9.375 102.625 -11.53125 L 80.71875 -53.046875 L 64.578125 -53.046875 L 64.578125 -24.21875 C 64.578125 -17.300781 62.226562 -11.535156 57.53125 -6.921875 C 52.84375 -2.304688 46.734375 0 39.203125 0 Z M 83.03125 -99.171875 C 85.945312 -99.171875 88.210938 -99.9375 89.828125 -101.46875 C 91.441406 -103.007812 92.25 -104.929688 92.25 -107.234375 C 92.25 -109.546875 91.441406 -111.46875 89.828125 -113 C 88.210938 -114.539062 85.945312 -115.3125 83.03125 -115.3125 L 64.578125 -115.3125 L 64.578125 -99.171875 Z M 83.03125 -99.171875 "/></g></g></g><g fill="#000000" fill-opacity="1"><g transform="translate(1063.867652, 451.339697)"><g><path d="M 29.984375 0 C 22.453125 0 16.335938 -2.304688 11.640625 -6.921875 C 6.953125 -11.535156 4.609375 -17.300781 4.609375 -24.21875 C 4.609375 -31.132812 6.953125 -36.898438 11.640625 -41.515625 C 16.335938 -46.128906 22.453125 -48.4375 29.984375 -48.4375 L 29.984375 -113 C 22.453125 -113 16.335938 -115.304688 11.640625 -119.921875 C 6.953125 -124.535156 4.609375 -130.300781 4.609375 -137.21875 C 4.609375 -144.132812 6.953125 -149.898438 11.640625 -154.515625 C 16.335938 -159.128906 22.453125 -161.4375 29.984375 -161.4375 L 80.71875 -161.4375 C 88.25 -161.4375 94.359375 -159.128906 99.046875 -154.515625 C 103.742188 -149.898438 106.09375 -144.132812 106.09375 -137.21875 C 106.09375 -130.300781 103.742188 -124.535156 99.046875 -119.921875 C 94.359375 -115.304688 88.25 -113 80.71875 -113 L 80.71875 -48.4375 C 88.25 -48.4375 94.359375 -46.128906 99.046875 -41.515625 C 103.742188 -36.898438 106.09375 -31.132812 106.09375 -24.21875 C 106.09375 -17.300781 103.742188 -11.535156 99.046875 -6.921875 C 94.359375 -2.304688 88.25 0 80.71875 0 Z M 29.984375 0 "/></g></g></g><g fill="#000000" fill-opacity="1"><g transform="translate(1189.092104, 451.339697)"><g><path d="M 39.203125 0 C 31.671875 0 25.5625 -2.304688 20.875 -6.921875 C 16.1875 -11.535156 13.84375 -17.300781 13.84375 -24.21875 L 13.84375 -137.21875 C 13.84375 -144.132812 16.1875 -149.898438 20.875 -154.515625 C 25.5625 -159.128906 31.671875 -161.4375 39.203125 -161.4375 C 46.734375 -161.4375 52.84375 -159.128906 57.53125 -154.515625 C 62.226562 -149.898438 64.578125 -144.132812 64.578125 -137.21875 L 64.578125 -24.21875 C 64.578125 -17.300781 62.226562 -11.535156 57.53125 -6.921875 C 52.84375 -2.304688 46.734375 0 39.203125 0 Z M 124.53125 0 C 120.6875 0 117.535156 -0.570312 115.078125 -1.71875 C 112.617188 -2.875 110.617188 -4.222656 109.078125 -5.765625 C 107.390625 -7.453125 106.007812 -9.375 104.9375 -11.53125 L 78.40625 -62.265625 C 77.03125 -64.421875 75.878906 -66.726562 74.953125 -69.1875 C 74.023438 -71.1875 73.21875 -73.414062 72.53125 -75.875 C 71.84375 -78.332031 71.5 -80.71875 71.5 -83.03125 C 71.5 -85.332031 71.84375 -87.675781 72.53125 -90.0625 C 73.21875 -92.445312 74.023438 -94.710938 74.953125 -96.859375 C 75.878906 -99.171875 77.03125 -101.476562 78.40625 -103.78125 L 102.625 -149.90625 C 103.707031 -152.0625 105.09375 -153.984375 106.78125 -155.671875 C 108.3125 -157.054688 110.304688 -158.363281 112.765625 -159.59375 C 115.234375 -160.820312 118.390625 -161.4375 122.234375 -161.4375 C 129.765625 -161.4375 135.875 -159.207031 140.5625 -154.75 C 145.25 -150.289062 147.59375 -144.832031 147.59375 -138.375 C 147.59375 -136.21875 147.285156 -134.101562 146.671875 -132.03125 C 146.054688 -129.957031 145.367188 -128 144.609375 -126.15625 C 143.835938 -124 142.910156 -121.921875 141.828125 -119.921875 L 122.234375 -83.03125 L 144.140625 -41.515625 C 145.210938 -39.515625 146.132812 -37.4375 146.90625 -35.28125 C 147.675781 -33.4375 148.367188 -31.4375 148.984375 -29.28125 C 149.597656 -27.132812 149.90625 -25.0625 149.90625 -23.0625 C 149.90625 -16.601562 147.5625 -11.144531 142.875 -6.6875 C 138.1875 -2.226562 132.070312 0 124.53125 0 Z M 124.53125 0 "/></g></g></g></g></g></g></g></g></mask><clipPath id="d22cc5c2ea"><path d="M 0 0 L 1440 0 L 1440 810 L 0 810 Z M 0 0 " clip-rule="nonzero"/></clipPath><clipPath id="91d6c9debc"><rect x="0" width="1440" y="0" height="810"/></clipPath><clipPath id="8a18efd072"><rect x="0" width="1440" y="0" height="810"/></clipPath><clipPath id="1735aad6c1"><rect x="0" width="1440" y="0" height="810"/></clipPath></defs><rect x="-144" width="1728" fill="#ffffff" y="-80.999999" height="971.999992" fill-opacity="1"/><rect x="-144" width="1728" fill="#ffffff" y="-80.999999" height="971.999992" fill-opacity="1"/><g transform="matrix(1, 0, 0, 1, 0, 0.000000000000039746)"><g clip-path="url(#1735aad6c1)"><g fill="#000000" fill-opacity="1"><g transform="translate(170.233511, 451.339697)"><g><path d="M 39.207031 16.144531 C 27.265625 16.144531 17.378906 12.292969 9.550781 4.589844 C 1.644531 -3.183594 -2.308594 -12.785156 -2.308594 -24.214844 L -2.308594 -137.21875 C -2.308594 -148.648438 1.644531 -158.25 9.550781 -166.027344 C 17.378906 -173.726562 27.265625 -177.578125 39.207031 -177.578125 C 50.679688 -177.578125 60.648438 -174 69.113281 -166.847656 C 75.734375 -161.25 81.773438 -154.359375 87.230469 -146.175781 L 119.519531 -97.746094 L 106.085938 -88.789062 L 106.085938 -104.933594 L 108.390625 -104.933594 L 108.390625 -88.789062 L 92.246094 -88.789062 L 92.246094 -137.21875 C 92.246094 -148.648438 96.199219 -158.25 104.105469 -166.027344 C 111.933594 -173.726562 121.820312 -177.578125 133.761719 -177.578125 C 145.699219 -177.578125 155.585938 -173.726562 163.414062 -166.027344 C 171.320312 -158.25 175.273438 -148.648438 175.273438 -137.21875 L 175.273438 -24.214844 C 175.273438 -12.785156 171.320312 -3.183594 163.414062 4.589844 C 155.585938 12.292969 145.699219 16.144531 133.761719 16.144531 C 122.289062 16.144531 112.320312 12.566406 103.851562 5.414062 C 97.230469 -0.183594 91.191406 -7.074219 85.734375 -15.261719 L 53.449219 -63.691406 L 66.878906 -72.644531 L 66.878906 -56.5 L 64.574219 -56.5 L 64.574219 -72.644531 L 80.71875 -72.644531 L 80.71875 -24.214844 C 80.71875 -12.785156 76.765625 -3.183594 68.859375 4.589844 C 61.03125 12.292969 51.144531 16.144531 39.207031 16.144531 Z M 39.207031 -16.144531 C 42.332031 -16.144531 44.671875 -16.90625 46.21875 -18.429688 C 47.691406 -19.878906 48.429688 -21.808594 48.429688 -24.214844 L 48.429688 -88.789062 L 75.519531 -88.789062 L 112.601562 -33.171875 C 116.367188 -27.519531 120.398438 -22.878906 124.691406 -19.25 C 127.144531 -17.179688 130.164062 -16.144531 133.761719 -16.144531 C 136.886719 -16.144531 139.226562 -16.90625 140.773438 -18.429688 C 142.246094 -19.878906 142.984375 -21.808594 142.984375 -24.214844 L 142.984375 -137.21875 C 142.984375 -139.628906 142.246094 -141.558594 140.773438 -143.007812 C 139.226562 -144.53125 136.886719 -145.289062 133.761719 -145.289062 C 130.632812 -145.289062 128.296875 -144.53125 126.746094 -143.007812 C 125.273438 -141.558594 124.535156 -139.628906 124.535156 -137.21875 L 124.535156 -72.644531 L 97.445312 -72.644531 L 60.367188 -128.265625 C 56.597656 -133.914062 52.566406 -138.554688 48.273438 -142.183594 C 45.824219 -144.253906 42.800781 -145.289062 39.207031 -145.289062 C 36.078125 -145.289062 33.742188 -144.53125 32.191406 -143.007812 C 30.71875 -141.558594 29.980469 -139.628906 29.980469 -137.21875 L 29.980469 -24.214844 C 29.980469 -21.808594 30.71875 -19.878906 32.191406 -18.429688 C 33.742188 -16.90625 36.078125 -16.144531 39.207031 -16.144531 Z M 39.207031 -16.144531 "/></g></g></g><g fill="#000000" fill-opacity="1"><g transform="translate(357.723651, 451.339697)"><g><path d="M 80.71875 20.757812 C 68.183594 20.757812 56.75 18.847656 46.410156 15.027344 C 35.769531 11.097656 26.640625 5.46875 19.023438 -1.855469 C 11.355469 -9.226562 5.476562 -18.027344 1.382812 -28.25 C -2.613281 -38.246094 -4.613281 -49.203125 -4.613281 -61.113281 L -4.613281 -137.21875 C -4.613281 -148.648438 -0.660156 -158.25 7.242188 -166.027344 C 15.074219 -173.726562 24.960938 -177.578125 36.898438 -177.578125 C 48.839844 -177.578125 58.722656 -173.726562 66.554688 -166.027344 C 74.460938 -158.25 78.410156 -148.648438 78.410156 -137.21875 L 78.410156 -61.113281 C 78.410156 -60.503906 78.457031 -60.082031 78.542969 -59.855469 C 78.507812 -59.953125 78.453125 -60.035156 78.386719 -60.097656 C 78.320312 -60.164062 78.25 -60.222656 78.171875 -60.265625 C 78.15625 -60.277344 78.144531 -60.285156 78.136719 -60.285156 C 78.160156 -60.277344 78.191406 -60.265625 78.234375 -60.25 C 78.785156 -60.058594 79.613281 -59.960938 80.71875 -59.960938 C 81.820312 -59.960938 82.648438 -60.058594 83.203125 -60.25 C 83.242188 -60.265625 83.273438 -60.277344 83.296875 -60.285156 C 83.289062 -60.285156 83.277344 -60.277344 83.261719 -60.265625 C 83.1875 -60.222656 83.113281 -60.164062 83.046875 -60.097656 C 82.980469 -60.035156 82.929688 -59.953125 82.890625 -59.855469 C 82.980469 -60.082031 83.023438 -60.503906 83.023438 -61.113281 L 83.023438 -137.21875 C 83.023438 -148.648438 86.976562 -158.25 94.878906 -166.027344 C 102.710938 -173.726562 112.597656 -177.578125 124.535156 -177.578125 C 136.476562 -177.578125 146.359375 -173.726562 154.191406 -166.027344 C 162.097656 -158.25 166.046875 -148.648438 166.046875 -137.21875 L 166.046875 -61.113281 C 166.046875 -49.203125 164.050781 -38.246094 160.050781 -28.25 C 155.960938 -18.027344 150.082031 -9.226562 142.414062 -1.855469 C 134.796875 5.46875 125.667969 11.097656 115.023438 15.027344 C 104.6875 18.847656 93.25 20.757812 80.71875 20.757812 Z M 80.71875 -11.53125 C 89.402344 -11.53125 97.109375 -12.773438 103.835938 -15.257812 C 110.257812 -17.632812 115.660156 -20.921875 120.035156 -25.128906 C 124.359375 -29.285156 127.703125 -34.324219 130.070312 -40.242188 C 132.53125 -46.390625 133.757812 -53.347656 133.757812 -61.113281 L 133.757812 -137.21875 C 133.757812 -139.628906 133.023438 -141.558594 131.550781 -143.007812 C 130 -144.53125 127.664062 -145.289062 124.535156 -145.289062 C 121.40625 -145.289062 119.070312 -144.53125 117.523438 -143.007812 C 116.046875 -141.558594 115.3125 -139.628906 115.3125 -137.21875 L 115.3125 -61.113281 C 115.3125 -51.351562 112.074219 -43.3125 105.601562 -36.992188 C 99.238281 -30.78125 90.941406 -27.671875 80.71875 -27.671875 C 70.492188 -27.671875 62.199219 -30.78125 55.832031 -36.992188 C 49.359375 -43.3125 46.125 -51.351562 46.125 -61.113281 L 46.125 -137.21875 C 46.125 -139.628906 45.386719 -141.558594 43.914062 -143.007812 C 42.363281 -144.53125 40.027344 -145.289062 36.898438 -145.289062 C 33.773438 -145.289062 31.433594 -144.53125 29.886719 -143.007812 C 28.414062 -141.558594 27.675781 -139.628906 27.675781 -137.21875 L 27.675781 -61.113281 C 27.675781 -53.347656 28.90625 -46.390625 31.363281 -40.242188 C 33.730469 -34.324219 37.078125 -29.285156 41.402344 -25.128906 C 45.777344 -20.921875 51.175781 -17.632812 57.597656 -15.257812 C 64.328125 -12.773438 72.03125 -11.53125 80.71875 -11.53125 Z M 80.71875 -11.53125 "/></g></g></g><g fill="#000000" fill-opacity="1"><g transform="translate(533.683134, 451.339697)"><g><path d="M 39.207031 16.144531 C 27.265625 16.144531 17.378906 12.292969 9.550781 4.589844 C 1.644531 -3.183594 -2.308594 -12.785156 -2.308594 -24.214844 L -2.308594 -137.21875 C -2.308594 -148.648438 1.644531 -158.25 9.550781 -166.027344 C 17.378906 -173.726562 27.265625 -177.578125 39.207031 -177.578125 C 45.214844 -177.578125 50.894531 -176.371094 56.238281 -173.953125 C 60.339844 -172.097656 64.015625 -170.054688 67.261719 -167.820312 L 67.417969 -167.714844 L 67.570312 -167.605469 C 71.308594 -164.902344 74.730469 -161.792969 77.832031 -158.277344 L 65.726562 -147.597656 L 77.558594 -158.582031 L 107.539062 -126.296875 L 95.707031 -115.3125 L 83.878906 -126.296875 L 113.859375 -158.582031 L 125.6875 -147.597656 L 113.582031 -158.277344 C 116.683594 -161.792969 120.105469 -164.902344 123.847656 -167.605469 L 124 -167.714844 L 124.152344 -167.820312 C 127.359375 -170.027344 130.953125 -172.050781 134.929688 -173.890625 C 140.234375 -176.351562 145.992188 -177.578125 152.210938 -177.578125 C 164.148438 -177.578125 174.035156 -173.726562 181.867188 -166.027344 C 189.769531 -158.25 193.722656 -148.648438 193.722656 -137.21875 L 193.722656 -24.214844 C 193.722656 -12.785156 189.769531 -3.183594 181.867188 4.589844 C 174.035156 12.292969 164.148438 16.144531 152.210938 16.144531 C 140.269531 16.144531 130.386719 12.292969 122.554688 4.589844 C 114.648438 -3.183594 110.699219 -12.785156 110.699219 -24.214844 L 110.699219 -83.023438 L 126.839844 -83.023438 L 138.703125 -72.074219 L 124.648438 -56.847656 L 124.421875 -56.617188 C 122.285156 -54.484375 120.03125 -52.550781 117.65625 -50.824219 C 114.828125 -48.84375 111.722656 -47.226562 108.347656 -45.976562 C 104.464844 -44.535156 100.25 -43.816406 95.707031 -43.816406 C 91.164062 -43.816406 86.953125 -44.535156 83.066406 -45.976562 C 79.691406 -47.226562 76.667969 -48.785156 73.996094 -50.65625 C 71.464844 -52.496094 69.128906 -54.484375 66.996094 -56.617188 L 66.765625 -56.847656 L 52.710938 -72.074219 L 64.574219 -83.023438 L 80.71875 -83.023438 L 80.71875 -24.214844 C 80.71875 -12.785156 76.765625 -3.183594 68.859375 4.589844 C 61.03125 12.292969 51.144531 16.144531 39.207031 16.144531 Z M 39.207031 -16.144531 C 42.332031 -16.144531 44.671875 -16.90625 46.21875 -18.429688 C 47.691406 -19.878906 48.429688 -21.808594 48.429688 -24.214844 L 48.429688 -124.316406 L 90.273438 -78.984375 L 78.410156 -68.035156 L 89.828125 -79.449219 C 90.765625 -78.507812 91.664062 -77.726562 92.511719 -77.109375 C 92.914062 -76.828125 93.503906 -76.542969 94.28125 -76.253906 C 94.546875 -76.15625 95.023438 -76.105469 95.707031 -76.105469 C 96.390625 -76.105469 96.867188 -76.15625 97.132812 -76.253906 C 97.910156 -76.542969 98.421875 -76.769531 98.664062 -76.9375 C 99.675781 -77.671875 100.648438 -78.507812 101.589844 -79.449219 L 113.003906 -68.035156 L 101.140625 -78.984375 L 142.984375 -124.316406 L 142.984375 -24.214844 C 142.984375 -21.808594 143.722656 -19.878906 145.195312 -18.429688 C 146.746094 -16.90625 149.082031 -16.144531 152.210938 -16.144531 C 155.335938 -16.144531 157.675781 -16.90625 159.222656 -18.429688 C 160.699219 -19.878906 161.433594 -21.808594 161.433594 -24.214844 L 161.433594 -137.21875 C 161.433594 -139.628906 160.699219 -141.558594 159.222656 -143.007812 C 157.675781 -144.53125 155.335938 -145.289062 152.210938 -145.289062 C 150.738281 -145.289062 149.503906 -145.058594 148.503906 -144.597656 C 146.175781 -143.515625 144.15625 -142.390625 142.445312 -141.210938 L 133.300781 -154.515625 L 142.75 -141.429688 C 140.957031 -140.132812 139.304688 -138.628906 137.792969 -136.917969 L 137.660156 -136.761719 L 95.707031 -91.585938 L 53.757812 -136.761719 L 53.621094 -136.917969 C 52.109375 -138.628906 50.457031 -140.132812 48.664062 -141.429688 L 58.117188 -154.515625 L 48.96875 -141.210938 C 47.300781 -142.363281 45.285156 -143.46875 42.929688 -144.535156 C 41.816406 -145.039062 40.574219 -145.289062 39.207031 -145.289062 C 36.078125 -145.289062 33.742188 -144.53125 32.191406 -143.007812 C 30.71875 -141.558594 29.980469 -139.628906 29.980469 -137.21875 L 29.980469 -24.214844 C 29.980469 -21.808594 30.71875 -19.878906 32.191406 -18.429688 C 33.742188 -16.90625 36.078125 -16.144531 39.207031 -16.144531 Z M 39.207031 -16.144531 "/></g></g></g><g fill="#000000" fill-opacity="1"><g transform="translate(739.622385, 451.339697)"><g><path d="M 39.207031 16.144531 C 27.265625 16.144531 17.378906 12.292969 9.550781 4.589844 C 1.644531 -3.183594 -2.308594 -12.785156 -2.308594 -24.214844 L -2.308594 -137.21875 C -2.308594 -148.648438 1.644531 -158.25 9.550781 -166.027344 C 17.378906 -173.726562 27.265625 -177.578125 39.207031 -177.578125 L 110.699219 -177.578125 C 122.636719 -177.578125 132.523438 -173.726562 140.355469 -166.027344 C 148.257812 -158.25 152.210938 -148.648438 152.210938 -137.21875 C 152.210938 -125.789062 148.257812 -116.1875 140.355469 -108.414062 C 132.523438 -100.710938 122.636719 -96.859375 110.699219 -96.859375 L 64.574219 -96.859375 L 64.574219 -113.003906 L 80.71875 -113.003906 L 80.71875 -103.78125 L 64.574219 -103.78125 L 64.574219 -119.925781 L 95.707031 -119.925781 C 101.210938 -119.925781 106.445312 -118.90625 111.40625 -116.871094 C 116.308594 -114.859375 120.578125 -112.101562 124.210938 -108.597656 C 127.875 -105.066406 130.75 -100.953125 132.832031 -96.269531 C 134.988281 -91.414062 136.066406 -86.230469 136.066406 -80.71875 C 136.066406 -75.203125 134.988281 -70.019531 132.832031 -65.167969 C 130.75 -60.480469 127.875 -56.371094 124.210938 -52.835938 C 120.578125 -49.332031 116.308594 -46.574219 111.40625 -44.5625 C 106.445312 -42.527344 101.210938 -41.511719 95.707031 -41.511719 L 64.574219 -41.511719 L 64.574219 -57.65625 L 80.71875 -57.65625 L 80.71875 -48.429688 L 64.574219 -48.429688 L 64.574219 -64.574219 L 110.699219 -64.574219 C 122.636719 -64.574219 132.523438 -60.722656 140.355469 -53.023438 C 148.257812 -45.246094 152.210938 -35.644531 152.210938 -24.214844 C 152.210938 -12.785156 148.257812 -3.183594 140.355469 4.589844 C 132.523438 12.292969 122.636719 16.144531 110.699219 16.144531 Z M 39.207031 -16.144531 L 110.699219 -16.144531 C 113.824219 -16.144531 116.164062 -16.90625 117.710938 -18.429688 C 119.183594 -19.878906 119.921875 -21.808594 119.921875 -24.214844 C 119.921875 -26.625 119.183594 -28.550781 117.710938 -30.003906 C 116.164062 -31.523438 113.824219 -32.285156 110.699219 -32.285156 L 48.429688 -32.285156 L 48.429688 -73.800781 L 95.707031 -73.800781 C 96.96875 -73.800781 98.117188 -74.011719 99.152344 -74.4375 C 100.246094 -74.886719 101.128906 -75.433594 101.796875 -76.078125 C 102.4375 -76.699219 102.949219 -77.429688 103.324219 -78.28125 C 103.628906 -78.960938 103.777344 -79.773438 103.777344 -80.71875 C 103.777344 -81.664062 103.628906 -82.476562 103.324219 -83.15625 C 102.949219 -84.003906 102.4375 -84.738281 101.796875 -85.355469 C 101.128906 -86 100.246094 -86.550781 99.152344 -87 C 98.117188 -87.421875 96.96875 -87.636719 95.707031 -87.636719 L 48.429688 -87.636719 L 48.429688 -129.148438 L 110.699219 -129.148438 C 113.824219 -129.148438 116.164062 -129.910156 117.710938 -131.433594 C 119.183594 -132.882812 119.921875 -134.8125 119.921875 -137.21875 C 119.921875 -139.628906 119.183594 -141.558594 117.710938 -143.007812 C 116.164062 -144.53125 113.824219 -145.289062 110.699219 -145.289062 L 39.207031 -145.289062 C 36.078125 -145.289062 33.742188 -144.53125 32.191406 -143.007812 C 30.71875 -141.558594 29.980469 -139.628906 29.980469 -137.21875 L 29.980469 -24.214844 C 29.980469 -21.808594 30.71875 -19.878906 32.191406 -18.429688 C 33.742188 -16.90625 36.078125 -16.144531 39.207031 -16.144531 Z M 39.207031 -16.144531 "/></g></g></g><g fill="#000000" fill-opacity="1"><g transform="translate(892.520411, 451.339697)"><g><path d="M 39.207031 16.144531 C 27.265625 16.144531 17.378906 12.292969 9.550781 4.589844 C 1.644531 -3.183594 -2.308594 -12.785156 -2.308594 -24.214844 L -2.308594 -137.21875 C -2.308594 -148.648438 1.644531 -158.25 9.550781 -166.027344 C 17.378906 -173.726562 27.265625 -177.578125 39.207031 -177.578125 L 83.023438 -177.578125 C 94.691406 -177.578125 105.234375 -175.933594 114.648438 -172.636719 C 124.410156 -169.21875 132.757812 -164.347656 139.6875 -158.019531 C 146.703125 -151.613281 152.09375 -144.039062 155.855469 -135.296875 C 159.574219 -126.648438 161.4375 -117.296875 161.4375 -107.238281 C 161.4375 -98.386719 160.085938 -90.609375 157.382812 -83.90625 C 154.933594 -77.832031 152.132812 -72.695312 148.980469 -68.492188 C 145.144531 -63.375 140.792969 -59.160156 135.9375 -55.847656 L 126.839844 -69.1875 L 141.039062 -76.875 L 156.027344 -49.199219 C 157.503906 -46.460938 158.761719 -43.632812 159.804688 -40.714844 L 144.597656 -35.285156 L 159.503906 -41.496094 C 160.511719 -39.070312 161.410156 -36.480469 162.199219 -33.722656 C 163.226562 -30.121094 163.742188 -26.566406 163.742188 -23.0625 C 163.742188 -17.621094 162.71875 -12.515625 160.671875 -7.753906 C 158.628906 -2.996094 155.632812 1.261719 151.6875 5.011719 C 143.882812 12.433594 134.0625 16.144531 122.230469 16.144531 C 115.988281 16.144531 110.550781 15.058594 105.921875 12.886719 C 101.753906 10.933594 98.234375 8.523438 95.363281 5.648438 C 92.4375 2.722656 90.042969 -0.597656 88.1875 -4.3125 L 66.441406 -45.507812 L 80.71875 -53.042969 L 80.71875 -36.898438 L 64.574219 -36.898438 L 64.574219 -53.042969 L 80.71875 -53.042969 L 80.71875 -24.214844 C 80.71875 -12.785156 76.765625 -3.183594 68.859375 4.589844 C 61.03125 12.292969 51.144531 16.144531 39.207031 16.144531 Z M 39.207031 -16.144531 C 42.332031 -16.144531 44.671875 -16.90625 46.21875 -18.429688 C 47.691406 -19.878906 48.429688 -21.808594 48.429688 -24.214844 L 48.429688 -69.1875 L 90.453125 -69.1875 L 117.066406 -18.75 C 117.363281 -18.160156 117.738281 -17.636719 118.195312 -17.179688 C 118.398438 -16.976562 118.875 -16.699219 119.625 -16.347656 C 119.5625 -16.378906 119.519531 -16.394531 119.503906 -16.402344 C 119.597656 -16.371094 119.726562 -16.34375 119.886719 -16.3125 C 120.503906 -16.199219 121.285156 -16.144531 122.230469 -16.144531 C 125.464844 -16.144531 127.867188 -16.890625 129.4375 -18.386719 C 130.183594 -19.09375 130.707031 -19.796875 131.003906 -20.496094 C 131.304688 -21.191406 131.453125 -22.046875 131.453125 -23.0625 C 131.453125 -23.554688 131.351562 -24.152344 131.152344 -24.855469 C 130.710938 -26.402344 130.222656 -27.808594 129.695312 -29.074219 L 129.535156 -29.460938 L 129.394531 -29.855469 C 128.902344 -31.242188 128.3125 -32.5625 127.636719 -33.824219 L 105.703125 -74.3125 L 117.746094 -82.523438 C 119.652344 -83.824219 121.457031 -85.605469 123.152344 -87.867188 C 124.613281 -89.816406 126.039062 -92.519531 127.4375 -95.980469 C 128.578125 -98.808594 129.148438 -102.5625 129.148438 -107.238281 C 129.148438 -112.863281 128.164062 -117.960938 126.195312 -122.535156 C 124.265625 -127.015625 121.507812 -130.898438 117.917969 -134.175781 C 114.238281 -137.535156 109.59375 -140.199219 103.980469 -142.160156 C 98.019531 -144.246094 91.035156 -145.289062 83.023438 -145.289062 L 39.207031 -145.289062 C 36.078125 -145.289062 33.742188 -144.53125 32.191406 -143.007812 C 30.71875 -141.558594 29.980469 -139.628906 29.980469 -137.21875 L 29.980469 -24.214844 C 29.980469 -21.808594 30.71875 -19.878906 32.191406 -18.429688 C 33.742188 -16.90625 36.078125 -16.144531 39.207031 -16.144531 Z M 83.023438 -115.3125 C 82.710938 -115.3125 82.277344 -115.21875 81.734375 -115.035156 C 80.617188 -114.65625 79.605469 -114.03125 78.691406 -113.164062 C 77.871094 -112.382812 77.226562 -111.433594 76.757812 -110.320312 C 76.324219 -109.28125 76.105469 -108.253906 76.105469 -107.238281 C 76.105469 -106.222656 76.324219 -105.195312 76.757812 -104.160156 C 77.226562 -103.046875 77.871094 -102.097656 78.691406 -101.3125 C 79.605469 -100.445312 80.617188 -99.820312 81.734375 -99.445312 C 82.277344 -99.257812 82.710938 -99.167969 83.023438 -99.167969 L 64.574219 -99.167969 L 64.574219 -115.3125 L 80.71875 -115.3125 L 80.71875 -99.167969 L 64.574219 -99.167969 L 64.574219 -115.3125 Z M 83.023438 -83.023438 L 48.429688 -83.023438 L 48.429688 -131.453125 L 83.023438 -131.453125 C 90.25 -131.453125 96.230469 -129.203125 100.960938 -124.695312 C 103.398438 -122.375 105.253906 -119.695312 106.527344 -116.660156 C 107.769531 -113.703125 108.394531 -110.558594 108.394531 -107.238281 C 108.394531 -103.917969 107.769531 -100.777344 106.527344 -97.816406 C 105.253906 -94.78125 103.398438 -92.101562 100.960938 -89.78125 C 96.230469 -85.277344 90.25 -83.023438 83.023438 -83.023438 Z M 83.023438 -83.023438 "/></g></g></g><g fill="#000000" fill-opacity="1"><g transform="translate(1063.867652, 451.339697)"><g><path d="M 29.980469 16.144531 C 18.042969 16.144531 8.15625 12.292969 0.324219 4.589844 C -7.578125 -3.183594 -11.53125 -12.785156 -11.53125 -24.214844 C -11.53125 -35.644531 -7.578125 -45.246094 0.324219 -53.023438 C 8.15625 -60.722656 18.042969 -64.574219 29.980469 -64.574219 L 29.980469 -48.429688 L 13.835938 -48.429688 L 13.835938 -113.003906 L 29.980469 -113.003906 L 29.980469 -96.859375 C 18.042969 -96.859375 8.15625 -100.710938 0.324219 -108.414062 C -7.578125 -116.1875 -11.53125 -125.789062 -11.53125 -137.21875 C -11.53125 -148.648438 -7.578125 -158.25 0.324219 -166.027344 C 8.15625 -173.726562 18.042969 -177.578125 29.980469 -177.578125 L 80.71875 -177.578125 C 92.65625 -177.578125 102.542969 -173.726562 110.371094 -166.027344 C 118.277344 -158.25 122.230469 -148.648438 122.230469 -137.21875 C 122.230469 -125.789062 118.277344 -116.1875 110.371094 -108.414062 C 102.542969 -100.710938 92.65625 -96.859375 80.71875 -96.859375 L 80.71875 -113.003906 L 96.863281 -113.003906 L 96.863281 -48.429688 L 80.71875 -48.429688 L 80.71875 -64.574219 C 92.65625 -64.574219 102.542969 -60.722656 110.371094 -53.023438 C 118.277344 -45.246094 122.230469 -35.644531 122.230469 -24.214844 C 122.230469 -12.785156 118.277344 -3.183594 110.371094 4.589844 C 102.542969 12.292969 92.65625 16.144531 80.71875 16.144531 Z M 29.980469 -16.144531 L 80.71875 -16.144531 C 83.84375 -16.144531 86.183594 -16.90625 87.730469 -18.429688 C 89.203125 -19.878906 89.941406 -21.808594 89.941406 -24.214844 C 89.941406 -26.625 89.203125 -28.550781 87.730469 -30.003906 C 86.183594 -31.523438 83.84375 -32.285156 80.71875 -32.285156 L 64.574219 -32.285156 L 64.574219 -129.148438 L 80.71875 -129.148438 C 83.84375 -129.148438 86.183594 -129.910156 87.730469 -131.433594 C 89.203125 -132.882812 89.941406 -134.8125 89.941406 -137.21875 C 89.941406 -139.628906 89.203125 -141.558594 87.730469 -143.007812 C 86.183594 -144.53125 83.84375 -145.289062 80.71875 -145.289062 L 29.980469 -145.289062 C 26.851562 -145.289062 24.515625 -144.53125 22.96875 -143.007812 C 21.492188 -141.558594 20.757812 -139.628906 20.757812 -137.21875 C 20.757812 -134.8125 21.492188 -132.882812 22.96875 -131.433594 C 24.515625 -129.910156 26.851562 -129.148438 29.980469 -129.148438 L 46.125 -129.148438 L 46.125 -32.285156 L 29.980469 -32.285156 C 26.851562 -32.285156 24.515625 -31.523438 22.96875 -30.003906 C 21.492188 -28.550781 20.757812 -26.625 20.757812 -24.214844 C 20.757812 -21.808594 21.492188 -19.878906 22.96875 -18.429688 C 24.515625 -16.90625 26.851562 -16.144531 29.980469 -16.144531 Z M 29.980469 -16.144531 "/></g></g></g><g fill="#000000" fill-opacity="1"><g transform="translate(1189.092104, 451.339697)"><g><path d="M 39.207031 16.144531 C 27.265625 16.144531 17.378906 12.292969 9.550781 4.589844 C 1.644531 -3.183594 -2.308594 -12.785156 -2.308594 -24.214844 L -2.308594 -137.21875 C -2.308594 -148.648438 1.644531 -158.25 9.550781 -166.027344 C 17.378906 -173.726562 27.265625 -177.578125 39.207031 -177.578125 C 51.144531 -177.578125 61.03125 -173.726562 68.859375 -166.027344 C 76.765625 -158.25 80.71875 -148.648438 80.71875 -137.21875 L 80.71875 -24.214844 C 80.71875 -12.785156 76.765625 -3.183594 68.859375 4.589844 C 61.03125 12.292969 51.144531 16.144531 39.207031 16.144531 Z M 39.207031 -16.144531 C 42.332031 -16.144531 44.671875 -16.90625 46.21875 -18.429688 C 47.691406 -19.878906 48.429688 -21.808594 48.429688 -24.214844 L 48.429688 -137.21875 C 48.429688 -139.628906 47.691406 -141.558594 46.21875 -143.007812 C 44.671875 -144.53125 42.332031 -145.289062 39.207031 -145.289062 C 36.078125 -145.289062 33.742188 -144.53125 32.191406 -143.007812 C 30.71875 -141.558594 29.980469 -139.628906 29.980469 -137.21875 L 29.980469 -24.214844 C 29.980469 -21.808594 30.71875 -19.878906 32.191406 -18.429688 C 33.742188 -16.90625 36.078125 -16.144531 39.207031 -16.144531 Z M 124.535156 16.144531 C 118.292969 16.144531 112.859375 15.058594 108.226562 12.886719 C 104.058594 10.933594 100.539062 8.523438 97.667969 5.648438 C 94.742188 2.722656 92.351562 -0.597656 90.492188 -4.3125 L 64.105469 -54.789062 L 78.410156 -62.269531 L 64.832031 -53.539062 C 62.828125 -56.65625 61.160156 -59.984375 59.835938 -63.519531 L 74.953125 -69.1875 L 60.292969 -62.421875 C 59.011719 -65.195312 57.910156 -68.222656 56.988281 -71.503906 C 55.894531 -75.394531 55.347656 -79.234375 55.347656 -83.023438 C 55.347656 -86.859375 55.90625 -90.707031 57.027344 -94.558594 C 57.902344 -97.574219 58.929688 -100.460938 60.113281 -103.21875 L 74.953125 -96.859375 L 59.960938 -102.855469 C 61.207031 -105.964844 62.742188 -109.039062 64.566406 -112.085938 L 78.410156 -103.78125 L 64.117188 -111.285156 L 88.332031 -157.410156 C 90.09375 -160.933594 92.4375 -164.160156 95.363281 -167.085938 L 95.664062 -167.386719 L 95.976562 -167.667969 C 98.597656 -170.027344 101.789062 -172.148438 105.554688 -174.03125 C 110.285156 -176.394531 115.84375 -177.578125 122.230469 -177.578125 C 134.0625 -177.578125 143.882812 -173.867188 151.6875 -166.445312 C 155.632812 -162.695312 158.628906 -158.441406 160.671875 -153.679688 C 162.71875 -148.917969 163.742188 -143.816406 163.742188 -138.371094 C 163.742188 -134.660156 163.210938 -131.015625 162.152344 -127.445312 C 161.375 -124.816406 160.492188 -122.316406 159.503906 -119.941406 L 144.597656 -126.148438 L 159.804688 -120.71875 C 158.761719 -117.800781 157.507812 -114.984375 156.046875 -112.269531 L 136.488281 -75.449219 L 122.230469 -83.023438 L 136.507812 -90.558594 L 158.417969 -49.046875 C 159.835938 -46.410156 161.066406 -43.632812 162.109375 -40.714844 L 146.90625 -35.285156 L 161.808594 -41.496094 C 162.816406 -39.070312 163.71875 -36.480469 164.503906 -33.722656 C 165.535156 -30.121094 166.046875 -26.566406 166.046875 -23.0625 C 166.046875 -17.621094 165.023438 -12.515625 162.980469 -7.753906 C 160.933594 -2.996094 157.941406 1.261719 153.996094 5.011719 C 146.1875 12.433594 136.371094 16.144531 124.535156 16.144531 Z M 124.535156 -16.144531 C 127.769531 -16.144531 130.171875 -16.890625 131.746094 -18.386719 C 132.488281 -19.09375 133.011719 -19.796875 133.3125 -20.496094 C 133.609375 -21.191406 133.757812 -22.046875 133.757812 -23.0625 C 133.757812 -23.554688 133.660156 -24.152344 133.457031 -24.855469 C 133.015625 -26.402344 132.53125 -27.808594 132.003906 -29.074219 L 131.84375 -29.460938 L 131.703125 -29.855469 C 131.207031 -31.242188 130.59375 -32.613281 129.859375 -33.976562 L 103.960938 -83.046875 L 127.617188 -127.578125 C 128.308594 -128.859375 128.902344 -130.195312 129.394531 -131.578125 L 129.535156 -131.972656 L 129.695312 -132.359375 C 130.246094 -133.671875 130.746094 -135.09375 131.195312 -136.617188 C 131.367188 -137.195312 131.453125 -137.78125 131.453125 -138.371094 C 131.453125 -139.386719 131.304688 -140.242188 131.003906 -140.9375 C 130.707031 -141.636719 130.183594 -142.339844 129.4375 -143.046875 C 127.867188 -144.542969 125.464844 -145.289062 122.230469 -145.289062 C 121.347656 -145.289062 120.628906 -145.238281 120.074219 -145.128906 C 119.949219 -145.101562 119.851562 -145.082031 119.789062 -145.058594 C 119.835938 -145.074219 119.90625 -145.105469 119.992188 -145.148438 C 118.835938 -144.570312 118.03125 -144.078125 117.578125 -143.667969 L 106.777344 -155.667969 L 118.195312 -144.253906 C 117.738281 -143.796875 117.3125 -143.179688 116.921875 -142.398438 L 92.492188 -95.867188 L 92.253906 -95.472656 C 91.316406 -93.90625 90.542969 -92.371094 89.941406 -90.863281 L 89.867188 -90.683594 L 89.789062 -90.5 C 89.128906 -88.953125 88.542969 -87.304688 88.035156 -85.554688 C 87.769531 -84.644531 87.636719 -83.800781 87.636719 -83.023438 C 87.636719 -82.203125 87.78125 -81.277344 88.070312 -80.246094 C 88.53125 -78.605469 89.046875 -77.175781 89.609375 -75.953125 L 89.859375 -75.410156 L 90.066406 -74.855469 C 90.585938 -73.46875 91.230469 -72.183594 91.992188 -70.996094 L 92.382812 -70.386719 L 119.371094 -18.75 C 119.667969 -18.160156 120.042969 -17.636719 120.5 -17.179688 C 120.703125 -16.976562 121.179688 -16.699219 121.933594 -16.347656 C 121.867188 -16.378906 121.828125 -16.394531 121.808594 -16.402344 C 121.902344 -16.371094 122.03125 -16.34375 122.195312 -16.3125 C 122.808594 -16.199219 123.589844 -16.144531 124.535156 -16.144531 Z M 124.535156 -16.144531 "/></g></g></g><g transform="matrix(1, 0, 0, 1, 0, 0.000000000000039746)"><g clip-path="url(#8a18efd072)"><g mask="url(#7f80759435)"><g transform="matrix(1, 0, 0, 1, 0, 0.000000000000039746)"><g clip-path="url(#91d6c9debc)"><g clip-path="url(#d22cc5c2ea)"><rect x="-772.992" fill="url(#9a9ffdec3e)" width="2985.984" height="1679.615985" y="-434.807996"/></g></g></g></g></g></g></g></g></svg>